<svg width="184" height="100" viewBox="0 0 184 100" fill="none" xmlns="http://www.w3.org/2000/svg">
<g clip-path="url(#clip0)">
<path d="M88.0575 58.9147L84.5429 51.7329H82.0146V58.9147H78.5V40.9044H85.5532C86.3066 40.8488 87.0633 40.9507 87.7752 41.2036C88.4871 41.4565 89.1386 41.8548 89.6881 42.3732C90.2377 42.8916 90.6733 43.5188 90.9672 44.2147C91.2611 44.9107 91.4069 45.6602 91.3954 46.4156C91.4249 47.4516 91.1215 48.4697 90.5297 49.3206C89.9378 50.1714 89.0888 50.8101 88.1072 51.1428L92.1278 58.9061L88.0575 58.9147ZM85.3268 44.0485H82.0146V48.8015H85.3336C85.6599 48.8247 85.9875 48.7804 86.2959 48.6715C86.6044 48.5626 86.8871 48.3914 87.1265 48.1684C87.3659 47.9455 87.5567 47.6756 87.6873 47.3757C87.8178 47.0757 87.8852 46.7521 87.8852 46.425C87.8852 46.0979 87.8178 45.7742 87.6873 45.4743C87.5567 45.1744 87.3659 44.9045 87.1265 44.6816C86.8871 44.4586 86.6044 44.2873 86.2959 44.1784C85.9875 44.0695 85.6599 44.0253 85.3336 44.0485H85.3268Z" fill="white"/>
<path d="M94.0215 58.9146V40.9043H105.879V44.0398H97.5344V48.2611H104.644V51.3966H97.5395V55.7705H105.884V58.906L94.0215 58.9146Z" fill="white"/>
<path d="M119.406 57.0174C118.083 58.3167 116.307 59.0509 114.453 59.065C112.599 59.0791 110.812 58.3719 109.47 57.0928C107.65 55.2729 107.699 53.0225 107.699 49.9128C107.699 46.803 107.65 44.5525 109.47 42.7326C110.099 42.0876 110.856 41.5794 111.691 41.24C112.526 40.9006 113.422 40.7372 114.324 40.7601C115.976 40.6724 117.599 41.2211 118.859 42.2934C120.12 43.3657 120.921 44.88 121.099 46.5251H117.559C117.453 45.7583 117.06 45.0603 116.459 44.5722C115.858 44.084 115.094 43.8422 114.322 43.8956C113.9 43.8831 113.48 43.9625 113.091 44.1284C112.703 44.2942 112.355 44.5426 112.072 44.8561C111.385 45.6143 111.214 46.4496 111.214 49.9128C111.214 53.3759 111.385 54.2369 112.072 54.9951C112.357 55.3046 112.705 55.5486 113.094 55.71C113.483 55.8714 113.902 55.9464 114.322 55.9299C114.787 55.9468 115.25 55.8656 115.681 55.6915C116.112 55.5174 116.502 55.2544 116.825 54.9196C117.388 54.2502 117.677 53.3922 117.634 52.5182V51.8321H114.322V48.899H121.125V51.5285C121.234 52.5126 121.138 53.5087 120.842 54.4536C120.547 55.3986 120.057 56.2716 119.406 57.0174Z" fill="white"/>
<path d="M123.676 58.9146V40.9043H127.189V58.9146H123.676Z" fill="white"/>
<path d="M141.272 57.0932C139.967 58.3577 138.222 59.0649 136.405 59.0649C134.588 59.0649 132.843 58.3577 131.538 57.0932C129.718 55.2733 129.768 53.0229 129.768 49.9132C129.768 46.8034 129.718 44.5529 131.538 42.7331C132.842 41.4681 134.588 40.7607 136.405 40.7607C138.222 40.7607 139.968 41.4681 141.272 42.7331C143.092 44.5529 143.066 46.8034 143.066 49.9132C143.066 53.0229 143.092 55.2751 141.272 57.0932ZM138.667 44.8565C138.384 44.5432 138.036 44.295 137.648 44.1292C137.259 43.9633 136.84 43.8838 136.418 43.896C135.992 43.8841 135.568 43.9637 135.176 44.1294C134.783 44.2951 134.43 44.543 134.142 44.8565C133.456 45.6147 133.284 46.45 133.284 49.9132C133.284 53.3763 133.456 54.2116 134.142 54.9698C134.43 55.2833 134.783 55.5312 135.176 55.6969C135.568 55.8626 135.992 55.9422 136.418 55.9303C136.84 55.9425 137.259 55.863 137.648 55.6971C138.036 55.5313 138.384 55.2831 138.667 54.9698C139.353 54.2116 139.552 53.378 139.552 49.9132C139.552 46.4483 139.351 45.613 138.667 44.8565Z" fill="white"/>
<path d="M156.277 58.9146L149.147 47.8666V58.9146H145.643V40.9043H148.778L155.908 51.9283V40.9043H159.423V58.9146H156.277Z" fill="white"/>
<path d="M162.605 58.9146V40.9043H174.463V44.0398H166.118V48.2611H173.223V51.3966H166.118V55.7705H174.463V58.906L162.605 58.9146Z" fill="white"/>
<path d="M85.4672 76.9192H82.0041V83.6945H78.4844V65.6842H85.4621C86.2266 65.6399 86.9921 65.7522 87.7116 66.0143C88.4312 66.2763 89.0897 66.6826 89.6466 67.2082C90.2036 67.7337 90.6473 68.3676 90.9506 69.0707C91.2539 69.7739 91.4103 70.5317 91.4103 71.2975C91.4103 72.0633 91.2539 72.821 90.9506 73.5242C90.6473 74.2273 90.2036 74.8612 89.6466 75.3868C89.0897 75.9123 88.4312 76.3186 87.7116 76.5807C86.9921 76.8427 86.2266 76.955 85.4621 76.9107L85.4672 76.9192ZM85.2957 68.8283H82.0075V73.758H85.2957C85.6303 73.7757 85.965 73.725 86.2794 73.6091C86.5939 73.4932 86.8814 73.3145 87.1245 73.0839C87.3676 72.8533 87.5612 72.5756 87.6935 72.2677C87.8258 71.9598 87.894 71.6283 87.894 71.2932C87.894 70.9581 87.8258 70.6265 87.6935 70.3186C87.5612 70.0107 87.3676 69.7331 87.1245 69.5024C86.8814 69.2718 86.5939 69.0931 86.2794 68.9772C85.965 68.8613 85.6303 68.8107 85.2957 68.8283Z" fill="white"/>
<path d="M99.701 83.8456C98.8435 83.896 97.9849 83.7694 97.1785 83.4736C96.3721 83.1777 95.6353 82.7191 95.0139 82.1262C94.3924 81.5332 93.8997 80.8187 93.5664 80.027C93.2332 79.2354 93.0664 78.3836 93.0766 77.5248V65.6895H96.5912V77.3961C96.5648 77.8225 96.6259 78.2497 96.7709 78.6516C96.9158 79.0534 97.1415 79.4213 97.4341 79.7326C97.7266 80.0438 98.0799 80.2919 98.4719 80.4615C98.864 80.631 99.2867 80.7185 99.7138 80.7185C100.141 80.7185 100.564 80.631 100.956 80.4615C101.348 80.2919 101.701 80.0438 101.994 79.7326C102.286 79.4213 102.512 79.0534 102.657 78.6516C102.802 78.2497 102.863 77.8225 102.836 77.3961V65.6895H106.325V77.5248C106.336 78.3836 106.169 79.2354 105.836 80.027C105.502 80.8187 105.01 81.5332 104.388 82.1262C103.767 82.7191 103.03 83.1777 102.223 83.4736C101.417 83.7694 100.558 83.896 99.701 83.8456Z" fill="white"/>
<path d="M120.328 81.7977C119.005 83.0969 117.229 83.8312 115.375 83.8452C113.521 83.8593 111.734 83.1522 110.391 81.8731C108.572 80.0532 108.621 77.8028 108.621 74.693C108.621 71.5833 108.572 69.3328 110.391 67.5129C111.021 66.8679 111.778 66.3598 112.613 66.0204C113.448 65.681 114.344 65.5176 115.246 65.5403C116.898 65.4527 118.521 66.0014 119.781 67.0737C121.041 68.146 121.843 69.6603 122.021 71.3054H118.482C118.376 70.5385 117.983 69.8405 117.382 69.3524C116.782 68.8643 116.018 68.6225 115.246 68.6759C114.824 68.6636 114.404 68.7432 114.016 68.909C113.627 69.0749 113.28 69.323 112.997 69.6364C112.311 70.3946 112.139 71.2299 112.139 74.693C112.139 78.1562 112.311 79.0172 112.997 79.7754C113.282 80.0847 113.63 80.3285 114.019 80.4899C114.407 80.6513 114.825 80.7264 115.246 80.7102C115.711 80.7273 116.174 80.6462 116.606 80.4721C117.037 80.298 117.427 80.0349 117.75 79.6999C118.312 79.0299 118.601 78.1722 118.558 77.2985V76.6124H115.246V73.6793H122.047V76.3088C122.157 77.2929 122.061 78.2891 121.765 79.234C121.469 80.179 120.98 81.052 120.328 81.7977Z" fill="white"/>
<path d="M124.598 83.6949V65.6846H128.112V80.5508H136.279V83.6863L124.598 83.6949Z" fill="white"/>
<path d="M138.129 83.6949V65.6846H141.643V83.6949H138.129Z" fill="white"/>
<path d="M155.062 83.6949L153.999 80.5096H147.603L146.517 83.6949H142.85L149.398 65.6846H152.155L158.73 83.6949H155.062ZM150.865 71.0019L148.591 77.5491H153.066L150.865 71.0019Z" fill="white"/>
<path d="M5.82246 6.02721L5.93566 5.85568C6.05916 6.40971 6.67494 6.90714 7.82246 7.36683L6.1981 8.91057L8.58918 9.46975V11.4457C6.89621 12.0101 5.88078 12.6687 5.88078 13.4149C5.88078 16.0718 18.0403 17.6481 29.771 17.6481C41.5514 17.6481 53.711 16.0684 53.7144 13.4149C53.7144 12.6859 52.7367 12.0426 51.1089 11.4835V9.2622L53.7659 8.6327L52.1707 7.12155C52.7991 6.9119 53.3217 6.46674 53.6286 5.87969L53.7127 6.02721C54.476 5.59325 54.9134 5.10782 54.9134 4.56065C54.9134 1.73904 42.1586 -0.00195312 29.7779 -0.00195312C17.3971 -0.00195312 4.62863 1.73904 4.57031 4.56408C4.57031 5.04093 5.00771 5.59325 5.82246 6.02892V6.02721ZM53.2804 13.4046C53.2804 15.1884 43.6098 17.2039 29.7676 17.2039C15.7024 17.2039 6.2547 15.2519 6.2547 13.4046C6.2547 11.6207 15.9254 9.60525 29.7676 9.60525C43.6098 9.60525 53.2804 11.6276 53.2804 13.4114V13.4046ZM51.8876 6.8574L51.699 6.68587L48.1689 7.173L50.6664 9.25019V11.336C46.325 9.99633 37.958 9.23304 29.7676 9.23304C21.6732 9.23304 13.3782 9.98261 9.01285 11.3051V9.57266L9.18438 9.61383L11.5189 7.50062L8.25985 6.95688L8.14664 7.0598C6.57374 6.43716 6.23927 5.94487 6.23927 5.65156C6.23927 3.86769 15.9031 1.85225 29.7521 1.85225C43.6012 1.85225 53.2684 3.85911 53.2684 5.64813C53.2684 5.90714 53.0266 6.33424 51.8876 6.84882V6.8574ZM29.7607 0.382266C44.5806 0.382266 54.5171 2.55551 54.5137 4.56408C54.5137 4.84882 54.1844 5.17643 53.6767 5.50405C53.3919 2.95002 41.3988 1.41314 29.759 1.41314C18.1192 1.41314 6.05573 2.96889 5.89278 5.59496C5.3216 5.25191 5.00599 4.90885 5.00599 4.5658C5.00599 2.55894 14.9545 0.383982 29.7676 0.383982L29.7607 0.382266Z" fill="white"/>
<path d="M59.4092 36.1763V22.377H-0.00585938V90.9876C0.129568 92.0734 0.659456 93.0715 1.48298 93.7921C2.16809 94.5267 3.09484 94.9901 4.09363 95.0974H4.15881C10.5053 95.039 22.9924 95.0356 25.7952 95.0356H26.1571C26.5246 95.0444 26.8867 95.127 27.2217 95.2785C27.5567 95.4299 27.8579 95.6472 28.1073 95.9173C29.0134 96.9583 29.4747 98.3133 29.3921 99.6908V100.001H29.6374V99.9327H29.7025C29.7935 99.9327 29.8312 99.8332 29.8826 99.7475H29.953C29.953 96.8915 31.26 95.0871 33.1828 95.0871C36.7849 95.0871 48.9633 95.0871 55.3681 95.1488C56.4141 94.9602 57.3761 94.4523 58.1218 93.6949C58.8675 92.9375 59.3604 91.9678 59.5327 90.919V36.1763H59.4092ZM0.558454 53.2603V36.7938H16.7883L0.558454 53.2603ZM42.6202 36.7938H58.7935V53.202L42.6202 36.7938ZM21.1314 85.8778L9.07304 73.8315V57.1128L9.13478 57.0511L20.7489 45.13H38.5876L38.6494 45.1917L50.2686 57.1111V73.8298L38.1588 85.8778H21.1314ZM4.03703 94.5245C3.19099 94.4138 2.41604 93.9933 1.86206 93.3444C1.14934 92.7209 0.686294 91.8606 0.558454 90.9224V78.3598L16.8535 94.4747C12.4264 94.4747 7.40409 94.4987 4.04388 94.5245H4.03703ZM29.7145 97.4541C29.6012 96.9245 29.3724 96.4264 29.0445 95.9953C28.7166 95.5642 28.2976 95.2108 27.8175 94.9601H31.5825C31.1057 95.2114 30.6908 95.5655 30.3677 95.9968C30.0446 96.4282 29.8215 96.926 29.7145 97.4541ZM58.7986 90.9361C58.6378 91.8126 58.2217 92.622 57.6026 93.2629C56.9834 93.9037 56.1887 94.3474 55.3183 94.5382C51.9736 94.5073 47.0319 94.4919 42.5688 94.4833L58.7986 78.4284V90.9361ZM58.9838 36.178H0.505284V22.8744H58.9838V36.178Z" fill="white"/>
<path d="M7.58627 32.7697C7.91356 32.77 8.23769 32.7057 8.54016 32.5807C8.84262 32.4556 9.11749 32.2722 9.34908 32.041C9.58067 31.8097 9.76444 31.5351 9.8899 31.2328C10.0154 30.9305 10.08 30.6065 10.0803 30.2792C10.0807 29.6194 9.81953 28.9863 9.35394 28.5188C8.88835 28.0513 8.25637 27.7874 7.59656 27.7852C7.2687 27.784 6.94383 27.8476 6.64057 27.9723C6.33731 28.0969 6.06163 28.2801 5.82931 28.5115C5.597 28.7429 5.41261 29.0178 5.28673 29.3205C5.16084 29.6233 5.09593 29.9479 5.09571 30.2757C5.09525 30.6031 5.15934 30.9273 5.2843 31.2299C5.40926 31.5325 5.59265 31.8074 5.82396 32.0391C6.05528 32.2707 6.32999 32.4544 6.63238 32.5798C6.93477 32.7052 7.25892 32.7697 7.58627 32.7697Z" fill="white"/>
<path d="M16.3383 32.7697H16.4086C17.0696 32.7697 17.7035 32.5071 18.1709 32.0397C18.6383 31.5724 18.9009 30.9384 18.9009 30.2774C18.9009 29.95 18.8364 29.6258 18.711 29.3233C18.5856 29.0208 18.4019 28.746 18.1703 28.5145C17.9387 28.2831 17.6637 28.0995 17.3612 27.9744C17.0586 27.8492 16.7343 27.7849 16.4069 27.7852C15.7462 27.7856 15.1127 28.0484 14.6457 28.5157C14.1787 28.9831 13.9163 29.6167 13.9163 30.2774C13.9062 30.9282 14.155 31.5562 14.6079 32.0236C15.0607 32.491 15.6807 32.7593 16.3314 32.7697" fill="white"/>
<path d="M25.3129 32.7697H25.3832C26.0442 32.7697 26.6781 32.5071 27.1455 32.0397C27.6129 31.5724 27.8755 30.9384 27.8755 30.2774C27.8755 29.6164 27.6129 28.9825 27.1455 28.5151C26.6781 28.0477 26.0442 27.7852 25.3832 27.7852C24.7222 27.7852 24.0883 28.0477 23.6209 28.5151C23.1535 28.9825 22.8909 29.6164 22.8909 30.2774C22.8808 30.9282 23.1296 31.5562 23.5825 32.0236C24.0354 32.491 24.6553 32.7593 25.306 32.7697" fill="white"/>
<path d="M34.598 32.7697H34.6684C35.3294 32.7697 35.9633 32.5071 36.4307 32.0397C36.8981 31.5724 37.1606 30.9384 37.1606 30.2774C37.1606 29.6164 36.8981 28.9825 36.4307 28.5151C35.9633 28.0477 35.3294 27.7852 34.6684 27.7852C34.0074 27.7852 33.3734 28.0477 32.906 28.5151C32.4387 28.9825 32.1761 29.6164 32.1761 30.2774C32.166 30.9282 32.4147 31.5562 32.8676 32.0236C33.3205 32.491 33.9405 32.7593 34.5912 32.7697" fill="white"/>
<path d="M44.0626 32.7697C44.7236 32.7697 45.3575 32.5071 45.8249 32.0397C46.2923 31.5724 46.5549 30.9384 46.5549 30.2774C46.5549 29.6164 46.2923 28.9825 45.8249 28.5151C45.3575 28.0477 44.7236 27.7852 44.0626 27.7852C43.4016 27.7852 42.7677 28.0477 42.3003 28.5151C41.8329 28.9825 41.5703 29.6164 41.5703 30.2774C41.5701 30.6045 41.6343 30.9284 41.7592 31.2307C41.8842 31.5329 42.0675 31.8076 42.2986 32.039C42.5297 32.2705 42.8041 32.4541 43.1062 32.5795C43.4083 32.7048 43.7321 32.7695 44.0592 32.7697H44.0626Z" fill="white"/>
<path d="M52.5548 32.7697C53.2158 32.7697 53.8497 32.5071 54.3171 32.0397C54.7845 31.5724 55.0471 30.9384 55.0471 30.2774C55.0471 29.6164 54.7845 28.9825 54.3171 28.5151C53.8497 28.0477 53.2158 27.7852 52.5548 27.7852C51.8938 27.7852 51.2599 28.0477 50.7925 28.5151C50.3251 28.9825 50.0625 29.6164 50.0625 30.2774C50.0623 30.6045 50.1265 30.9284 50.2514 31.2307C50.3764 31.5329 50.5596 31.8076 50.7908 32.039C51.0219 32.2705 51.2963 32.4541 51.5984 32.5795C51.9005 32.7048 52.2243 32.7695 52.5513 32.7697H52.5548Z" fill="white"/>
<path d="M8.32227 13.5253C8.32227 15.4876 19.3531 16.5168 29.7631 16.5168C40.173 16.5168 51.2039 15.4876 51.2039 13.5253C51.2039 11.5631 40.1267 10.5391 29.7631 10.5391C19.3995 10.5391 8.32227 11.5699 8.32227 13.5253ZM50.7768 13.5253C50.7768 14.6094 43.2828 16.1325 29.7648 16.1325C16.1919 16.1325 8.70134 14.6094 8.70134 13.5253C8.70134 12.4413 16.1936 10.9199 29.7631 10.9199C43.3326 10.9199 50.7751 12.4396 50.7751 13.5253" fill="white"/>
<path d="M17.5435 4.9382C16.408 5.10972 15.5915 5.86101 15.7527 6.62087C15.914 7.27268 16.9534 7.70835 18.0872 7.49051C19.2262 7.32585 20.0392 6.5677 19.878 5.86273C19.7167 5.15775 18.6773 4.7255 17.5435 4.9382Z" fill="white"/>
<path d="M41.5979 4.93994C40.459 4.72039 39.4195 5.15607 39.2634 5.86276C39.1074 6.56945 39.9152 7.32931 41.0542 7.49226C42.1931 7.7101 43.2274 7.27442 43.3887 6.62262C43.4984 5.8679 42.73 5.10804 41.5979 4.93994Z" fill="white"/>
<path d="M26.0195 4.83508L29.7519 6.95172L33.7828 4.83508L29.8188 2.93457L26.0195 4.83508Z" fill="white"/>
<path d="M38.5195 51.1494C38.5655 51.1758 38.6086 51.2069 38.6482 51.242L38.6602 51.206C38.6224 51.1769 38.5658 51.1803 38.5195 51.1494Z" fill="white"/>
<path d="M34.0489 80.3156V80.3036L34.0352 80.2744L34.0489 80.3156Z" fill="white"/>
<path d="M39.7088 59.7257C39.1409 59.9332 38.6666 60.3381 38.3726 60.8664C38.2692 61.0743 38.1247 61.259 37.9478 61.4093C37.7709 61.5597 37.5653 61.6726 37.3435 61.7412C37.6946 61.2381 37.9859 60.6959 38.2114 60.1254C37.4464 60.417 36.8392 60.8115 36.81 61.7086C36.7997 61.9796 36.5579 61.971 36.316 61.9762V61.1014C35.762 61.2832 35.6299 61.7738 35.3795 62.1666C35.4294 61.6853 35.3887 61.1989 35.2594 60.7326C35.106 60.8151 34.9712 60.9283 34.8635 61.0652C34.7558 61.202 34.6774 61.3597 34.6333 61.5282C34.5892 61.6967 34.5803 61.8725 34.6072 62.0446C34.634 62.2167 34.6961 62.3814 34.7894 62.5285C34.8649 62.7206 34.8838 62.8372 34.6831 62.947C34.5182 63.0479 34.359 63.1579 34.2063 63.2763L34.0261 62.0756C33.8319 62.2396 33.6906 62.4575 33.6201 62.7017C33.5496 62.9459 33.553 63.2056 33.6299 63.4479C33.6526 63.5066 33.6569 63.5709 33.6422 63.6322C33.6275 63.6935 33.5945 63.7488 33.5476 63.7909C33.3761 63.9521 33.2045 64.134 33.033 64.3158C32.8992 64.2746 33.0502 63.9985 32.8066 64.0482C32.6025 64.0911 32.6934 64.2592 32.6762 64.3621C32.6695 64.4748 32.6387 64.5847 32.5861 64.6846C32.5335 64.7845 32.4602 64.872 32.3711 64.9413C32.282 65.0106 32.1791 65.0601 32.0693 65.0866C31.9596 65.113 31.8454 65.1157 31.7346 65.0945C31.4738 65.0688 31.3675 64.9521 31.4738 64.6931C31.5802 64.4341 31.7002 64.1974 31.7843 63.9401C31.8221 63.7917 31.8995 63.6564 32.0083 63.5485C32.1171 63.4407 32.2531 63.3644 32.4018 63.3278C32.6908 63.2449 32.9566 63.0961 33.1783 62.8932C33.4 62.6902 33.5716 62.4385 33.6797 62.158C33.3623 62.0825 33.1033 62.2798 32.8117 62.2283C32.9437 61.9648 33.1175 61.7244 33.3263 61.5165C33.6128 61.1734 33.8632 60.736 34.4189 61.1134C34.4927 61.1631 34.5733 61.1408 34.6179 61.0293C34.6797 60.875 34.5682 60.875 34.4824 60.8304C34.3452 60.76 34.1719 60.7652 34.0656 60.6314C34.1531 60.4427 34.2457 60.2883 34.5047 60.3038C35.199 60.2963 35.8646 60.026 36.3675 59.5473C36.4773 59.465 36.6213 59.3655 36.563 59.2043C36.4961 59.007 36.3092 59.0431 36.1582 59.0671C35.6477 59.1498 35.1478 59.2884 34.6677 59.4804C34.7054 59.3484 34.7311 59.254 34.762 59.1631C34.9061 58.7292 35.1514 58.6142 35.5596 58.784C35.8535 58.9072 36.1767 58.943 36.4904 58.887C36.8041 58.831 37.0949 58.6857 37.328 58.4684C37.1061 58.2941 36.8445 58.1771 36.5665 58.1281C36.2886 58.079 36.0028 58.0993 35.7346 58.1871C36.0639 57.8286 36.2663 57.2283 36.9352 57.616C37.0261 57.6691 37.0862 57.6623 37.1394 57.5628C37.2097 57.429 37.1394 57.3758 37.0279 57.3432C36.9386 57.3289 36.8579 57.2818 36.8014 57.2111C37.3366 56.5731 38.4069 56.3141 38.28 55.1666C37.7745 55.3145 37.3301 55.6212 37.0124 56.0413C36.9284 55.8698 36.949 55.64 36.7088 55.6571C36.5064 55.6726 36.4224 55.8286 36.3658 56.0002C36.2808 56.1815 36.2263 56.3757 36.2045 56.5748C36.2045 57.4684 35.5322 57.9024 34.9335 58.4822C35.0353 57.9373 35.067 57.3816 35.0279 56.8286C34.998 56.7113 35.0122 56.5871 35.0679 56.4796C35.1235 56.3721 35.2167 56.2888 35.3297 56.2455C35.4172 56.2043 35.6162 56.1803 35.4876 55.9796C35.3589 55.7789 35.2646 55.9487 35.1788 56.0087C34.9936 56.1425 34.9044 56.0997 34.8821 55.8801C34.8072 55.4489 34.7671 55.0124 34.762 54.5748C34.7691 54.4376 34.7385 54.3012 34.6735 54.1802C34.6085 54.0592 34.5115 53.9584 34.3932 53.8887C34.2474 53.7961 34.1376 53.7652 34.1171 54.007C34.0697 54.1861 34.0605 54.3732 34.09 54.5561C34.1196 54.739 34.1872 54.9137 34.2886 55.0688L34.2234 55.1563C34.1016 55.1151 33.9815 55.0636 33.8563 55.0345C33.768 55.0003 33.6707 54.9965 33.58 55.0239C33.4892 55.0512 33.4102 55.1081 33.3555 55.1854C33.3137 55.2623 33.298 55.3507 33.3107 55.4373C33.3233 55.5239 33.3637 55.604 33.4258 55.6657C33.6745 55.9847 33.9627 56.2472 34.4121 56.0808C34.5836 56.019 34.6574 56.0619 34.6762 56.2266C34.7602 56.5919 34.7856 56.9682 34.7517 57.3415C34.6493 57.0949 34.48 56.8817 34.2631 56.7259C34.0461 56.5702 33.79 56.478 33.5236 56.4599C33.6276 57.1398 33.9172 57.7779 34.3606 58.3038C34.4191 58.345 34.4686 58.3977 34.506 58.4588C34.5434 58.5198 34.5679 58.5878 34.578 58.6587C34.5881 58.7295 34.5836 58.8017 34.5648 58.8707C34.546 58.9398 34.5133 59.0043 34.4687 59.0602C34.3796 58.9939 34.2842 58.9365 34.184 58.8887C34.0639 58.8424 33.9558 58.5714 33.8066 58.8132C33.6574 59.0551 33.9352 59.0756 34.0364 59.1288C34.3966 59.3124 34.4121 59.5439 34.208 59.8475C34.0982 60.0087 34.0553 60.2197 33.8649 60.3278C33.8529 60.1563 33.8786 59.9504 33.6213 59.9487C33.4488 59.9978 33.2894 60.0849 33.155 60.2036C33.0205 60.3223 32.9144 60.4697 32.8443 60.6348C32.7997 61.0293 33.2508 60.8063 33.3709 61.0379C33.304 61.1812 33.2019 61.3053 33.0741 61.3985C32.9464 61.4918 32.7971 61.5512 32.6402 61.5714C32.6402 61.2952 32.6402 61.0276 32.6402 60.76C32.6402 60.6331 32.6248 60.4616 32.5099 60.417C32.3949 60.3724 32.2817 60.5062 32.1857 60.5885C32.0011 60.7604 31.8811 60.9905 31.8458 61.2403C31.8106 61.4901 31.8621 61.7444 31.9918 61.9607C32.1634 62.2489 31.9918 62.2901 31.8083 62.417C31.7968 62.1066 31.7618 61.7976 31.7037 61.4925C31.6248 61.218 31.5613 60.9384 31.4824 60.6211C31.2415 60.8828 31.0756 61.2046 31.0023 61.5527C30.9289 61.9007 30.9508 62.2621 31.0656 62.5988C31.3589 63.1854 31.021 63.5371 30.7517 64.0208C30.4636 62.99 30.4051 61.9085 30.5802 60.8527C30.5888 60.748 30.6539 60.7137 30.7363 60.6811C31.5361 60.2266 32.2412 59.6227 32.8135 58.9024C33.1895 58.4482 33.4275 57.8959 33.4996 57.3106C33.563 56.9985 33.4996 56.7549 33.0879 56.8098C33.1746 56.521 33.2248 56.2225 33.2371 55.9213C32.8335 56.1036 32.4608 56.3478 32.1325 56.6451C32.1152 56.6269 32.0962 56.6102 32.0759 56.5954C32.1016 56.2969 32.1222 55.9967 32.1548 55.6983C32.1529 55.6639 32.1581 55.6294 32.1699 55.5971C32.1817 55.5647 32.1999 55.535 32.2234 55.5099C32.247 55.4847 32.2754 55.4646 32.3069 55.4507C32.3385 55.4368 32.3725 55.4294 32.4069 55.429C32.792 55.3312 33.1328 55.1065 33.3746 54.7913C33.6164 54.4761 33.745 54.0887 33.7397 53.6914C33.1209 53.906 32.5971 54.331 32.2594 54.8921C32.2423 54.5353 32.1668 54.1888 32.5287 53.9796C32.6248 53.9247 32.7894 53.8835 32.7174 53.6983C32.6454 53.513 32.4927 53.6726 32.3984 53.6623C32.3872 53.5582 32.3977 53.453 32.4293 53.3532C32.4608 53.2535 32.5128 53.1613 32.5818 53.0827C32.6508 53.004 32.7353 52.9405 32.8301 52.8962C32.9249 52.8519 33.0279 52.8277 33.1325 52.8252C33.8735 52.7172 34.2714 52.1391 34.6762 51.4804L32.973 52.0259C33.0627 51.7426 33.2332 51.4916 33.4635 51.3038C33.6791 51.1099 33.8129 50.8412 33.8377 50.5523C33.8626 50.2634 33.7766 49.9759 33.5973 49.748C33.4978 49.6211 33.4258 49.5902 33.292 49.7103C33.1691 49.7976 33.0696 49.9139 33.0022 50.0488C32.9349 50.1837 32.9019 50.3331 32.9061 50.4839C32.9249 50.6966 32.9558 50.9093 32.9764 51.1237C33.0124 51.4667 32.8306 51.6708 32.5339 51.6485C32.4052 51.6382 32.3212 51.7069 32.3623 51.8681C32.4035 52.0293 32.4978 52.2283 32.4498 52.3672C32.2577 52.9161 32.1445 53.4873 31.9661 54.0825C31.6902 53.7979 31.4479 53.4825 31.244 53.1425C32.0416 52.6811 32.1016 52.3021 31.6591 50.8647C31.4599 51.0875 31.2872 51.3328 31.1445 51.5954C30.973 51.4118 30.8272 51.2197 30.6522 51.0551C30.4773 50.8904 30.3503 50.8286 30.2954 51.1631C30.2324 51.5025 30.2008 51.8471 30.2011 52.1923C30.1805 52.2067 30.1615 52.2234 30.1445 52.242C29.9009 52.242 29.551 52.1014 29.4944 52.4581C29.4172 52.9436 29.8838 53.0499 30.2131 53.2369C29.8921 53.5366 29.6941 53.945 29.6574 54.3827C29.3383 53.9178 28.774 53.5834 29.0244 52.8784C29.0725 52.7412 29.3109 52.5096 29.0124 52.4221C28.7654 52.3501 28.8563 52.664 28.7586 52.7772C28.74 52.7915 28.7191 52.8025 28.6968 52.8098C28.6354 52.7298 28.596 52.6352 28.5824 52.5353C28.5689 52.4354 28.5817 52.3337 28.6196 52.2403C28.6756 52.0506 28.6921 51.8514 28.6681 51.655C28.644 51.4587 28.5799 51.2694 28.4797 51.0988C28.3796 50.9282 28.2455 50.78 28.0857 50.6633C27.926 50.5466 27.744 50.4639 27.551 50.4204C27.6111 50.7069 27.6625 50.9899 27.7311 51.266C27.7997 51.5422 27.8924 51.8286 27.9867 52.1528C27.8195 52.0689 27.6477 51.9945 27.4721 51.9298C27.3492 51.8742 27.2123 51.8571 27.0795 51.8806C26.9466 51.9042 26.824 51.9674 26.7277 52.0619C26.5466 52.2402 26.4035 52.4531 26.3067 52.6881C26.21 52.923 26.1617 53.175 26.1647 53.4291C26.1678 53.6831 26.2221 53.9339 26.3244 54.1665C26.4268 54.399 26.575 54.6085 26.7603 54.7823C26.8924 54.9093 27.0673 55.0019 27.1033 55.2077C27.2176 55.8641 27.2389 56.5333 27.1668 57.1957C26.6162 56.8046 26.0382 56.4856 26.4104 55.6914C26.4178 55.6634 26.4219 55.6346 26.4224 55.6057C26.443 55.4925 26.4224 55.4084 26.2903 55.3878C26.1582 55.3672 26.1685 55.4702 26.1479 55.5491L25.9953 56.1151C25.6865 55.0533 25.9335 53.9762 25.3349 53.0465L24.8683 53.9504C24.785 53.4011 24.5982 52.8726 24.3177 52.393C24.2251 52.2214 24.1291 52.0019 23.8718 52.0876C23.6145 52.1734 23.6539 52.393 23.6505 52.6022C23.6603 52.8449 23.7317 53.081 23.8581 53.2883C24.0193 53.5954 24.2011 53.8938 24.3881 54.218C24.2441 54.2106 24.0998 54.2106 23.9558 54.218C23.7123 54.2455 23.4978 54.3312 23.4978 54.6262C23.4978 54.959 23.7534 55.0208 24.0021 55.0276C24.1407 55.0341 24.279 55.0105 24.4075 54.9584C24.536 54.9063 24.6517 54.8269 24.7466 54.7257L25.3366 55.6828C25.1198 55.6742 24.9121 55.5933 24.7466 55.453C24.5616 55.315 24.3453 55.2248 24.1171 55.1906C23.8992 55.1545 23.6231 55.0551 23.4978 55.3158C23.3726 55.5765 23.6059 55.772 23.7912 55.9144C24.008 56.0697 24.263 56.1632 24.5288 56.1849C24.7946 56.2067 25.0614 56.1559 25.3006 56.0379C25.4807 55.9693 25.5407 56.007 25.6694 56.1408C25.9507 56.4324 25.8546 56.5765 25.5407 56.7086C25.4524 56.7551 25.3666 56.806 25.2834 56.8612C25.1925 56.911 25.1617 56.9727 25.2131 57.0705C25.2646 57.1683 25.3418 57.1683 25.4258 57.1185C25.5282 57.0707 25.6258 57.0132 25.7174 56.947C26.0502 56.6537 26.2954 56.7446 26.5099 57.1511C25.5716 57.4444 25.5562 58.2043 25.599 58.9967C25.6128 59.2763 25.599 59.5576 25.599 59.9419C25.4952 59.6458 25.4244 59.3392 25.3881 59.0276C25.3315 58.8561 25.3315 58.6091 25.081 58.6297C24.8306 58.6503 24.9095 58.5456 24.9215 58.4153C24.9586 58.1257 24.9297 57.8315 24.837 57.5547C24.7443 57.2778 24.5903 57.0255 24.3864 56.8166C24.2287 57.0789 24.1271 57.371 24.0879 57.6744C24.0486 57.9779 24.0726 58.2862 24.1582 58.5799L24.0605 58.6588C23.8186 58.5148 23.9078 58.2506 23.8478 58.0431C23.8203 57.9487 23.8478 57.8372 23.69 57.8492C23.5322 57.8612 23.5613 57.9693 23.5665 58.0688C23.5665 58.134 23.6042 58.206 23.5407 58.2403C23.2097 58.1117 23.1788 57.9298 23.3469 57.616C23.4988 57.3406 23.5637 57.0258 23.5331 56.7128C23.5025 56.3999 23.3778 56.1036 23.1754 55.8629C22.6608 56.3604 22.8323 56.9916 22.7843 57.5885C22.6521 57.5058 22.541 57.3934 22.4597 57.2604C22.3785 57.1273 22.3293 56.9771 22.316 56.8218C22.2837 56.4985 22.1583 56.1916 21.9549 55.9382C21.7515 55.6849 21.4789 55.4961 21.1702 55.3947C21.0897 55.7788 21.1374 56.1787 21.306 56.5331C21.4745 56.8876 21.7546 57.1769 22.1033 57.3569C21.9707 57.3807 21.8366 57.395 21.702 57.3998C21.5905 57.4135 21.4035 57.3175 21.3932 57.5199C21.3795 57.772 21.6025 57.6794 21.7105 57.6657C21.9653 57.6222 22.2273 57.6597 22.4596 57.7729C22.692 57.8861 22.8829 58.0694 23.0056 58.2969C22.2649 58.043 21.4623 58.0333 20.7157 58.2695C20.9873 58.5718 21.3476 58.7805 21.745 58.8659C22.1424 58.9512 22.5566 58.9087 22.9284 58.7446C23.4858 58.525 23.7551 58.7738 24.1102 59.122H23.3915C23.2972 59.122 23.22 59.1391 23.22 59.2592C23.22 59.3792 23.2886 59.3947 23.3915 59.3998C23.705 59.4294 24.02 59.4414 24.3349 59.4358C24.599 59.417 24.7346 59.5319 24.9078 59.7789C24.4109 59.6508 23.8914 59.6361 23.3881 59.736C23.256 59.7635 23.1291 59.8184 23.0965 59.9556C23.0894 60.0063 23.1007 60.0579 23.1284 60.101C23.1561 60.1441 23.1983 60.1759 23.2474 60.1906C23.5169 60.3418 23.8173 60.4297 24.1258 60.4475C24.4343 60.4654 24.7428 60.4127 25.0279 60.2935C25.4704 60.0808 25.5424 60.0808 25.8049 60.5113C25.7617 60.5104 25.7185 60.5144 25.6762 60.5233C25.5476 60.5662 25.3074 60.4033 25.3074 60.6674C25.3074 60.9316 25.5407 60.7909 25.6745 60.8166C25.7569 60.8338 25.846 60.8166 25.9318 60.8166C26.1342 60.8407 26.4052 60.748 26.5013 61.0002C26.5973 61.2523 26.8049 61.441 26.9112 61.6966L26.7037 61.7806C26.5888 61.8269 26.3692 61.7583 26.4275 62.0019C26.4858 62.2455 26.6574 62.0345 26.7706 62.0568C26.8838 62.0791 27.0707 61.8715 27.1822 62.0997C27.3322 62.3335 27.4326 62.5956 27.4773 62.8698C26.9277 62.6609 26.3311 62.6081 25.7534 62.7172C26.1136 62.9693 25.9901 63.2901 25.9987 63.6605C25.5819 63.3364 25.2148 63.0842 25.3126 62.5285C25.3393 62.2832 25.2946 62.0354 25.184 61.8149C25.137 61.6407 25.0257 61.4908 24.8727 61.3953C24.7196 61.2999 24.536 61.2659 24.3589 61.3003C24.4975 61.6846 24.5559 62.0933 24.5304 62.501C24.2834 62.2901 23.8649 62.2283 24.1702 61.7703C24.2217 61.6931 24.3778 61.5456 24.1702 61.4564C23.9627 61.3672 23.9678 61.5508 23.9147 61.6571C23.8821 61.7206 23.8495 61.784 23.8203 61.8509C23.7603 61.9916 23.6488 61.9967 23.5407 61.935C23.4567 61.8887 23.34 61.9161 23.3297 61.7309C23.2148 61.0781 22.8676 60.4889 22.352 60.0722C22.1805 59.8835 21.925 59.9967 21.8804 60.2437C21.8558 60.4012 21.8742 60.5624 21.9335 60.7103L21.8512 60.7772C21.8642 61.0292 21.9359 61.2747 22.0605 61.4942C21.9359 61.2747 21.8642 61.0292 21.8512 60.7772C21.7243 60.5542 21.6145 60.2866 21.292 60.3518C21.0605 60.3981 21.045 60.5971 21.0828 60.7978L20.9901 60.8681L21.0433 60.9659C21.0673 61.0019 21.0845 61.0465 21.1102 61.0808C21.0845 61.0465 21.0673 61.0019 21.0433 60.9659L20.9901 60.8681C20.9046 60.773 20.8314 60.6676 20.7723 60.5542C20.6848 60.35 20.5482 60.1707 20.3746 60.0321C20.2011 59.8936 19.9959 59.8001 19.7774 59.76C19.6625 59.7257 19.5579 59.6897 19.4584 59.7858C19.3589 59.8818 19.3761 60.0173 19.431 60.1408C19.5139 60.3084 19.6267 60.4595 19.7637 60.5868C20.0816 60.8762 20.4342 61.1251 20.8135 61.3278C20.8889 61.3741 21.0244 61.405 20.985 61.5319C20.9686 61.5811 20.9374 61.6241 20.8956 61.6548C20.8539 61.6855 20.8036 61.7025 20.7517 61.7034C20.5099 61.7034 20.268 61.6708 20.0244 61.6571C19.9112 61.6571 19.7843 61.6417 19.726 61.7686C19.7075 61.8231 19.7059 61.882 19.7215 61.9374C19.7371 61.9929 19.7692 62.0422 19.8135 62.0791C19.9093 62.1991 20.0347 62.2921 20.1773 62.3491C20.32 62.4061 20.475 62.4251 20.6271 62.4041C20.7793 62.3832 20.9234 62.3231 21.0454 62.2298C21.1674 62.1364 21.263 62.013 21.3229 61.8715C21.3641 61.7772 21.3503 61.6383 21.5356 61.7C21.834 61.8029 22.1394 61.8852 22.4756 61.9847C22.3864 62.0482 22.3263 62.0722 22.304 62.1151C22.2285 62.2369 21.8786 62.1786 22.0502 62.441C22.2217 62.7034 22.3709 62.4204 22.4601 62.3467C22.6521 62.1981 22.888 62.1175 23.1308 62.1175C23.3735 62.1175 23.6094 62.1981 23.8014 62.3467C23.6928 62.4294 23.5606 62.475 23.4241 62.477C23.0109 62.5234 22.6095 62.6437 22.2388 62.8321C22.0948 62.923 21.8821 63.0173 21.8872 63.1751C21.8872 63.3638 22.1411 63.3587 22.292 63.4101C22.4553 63.4616 22.6251 63.4894 22.7963 63.4925C22.9816 63.4925 23.0296 63.5919 23.0416 63.7978C22.4001 63.5971 21.8169 64.1031 21.1805 63.8681C21.1085 63.8407 20.9867 63.9093 20.9009 63.9573C20.7776 64.0162 20.6701 64.1038 20.5874 64.2127C20.5048 64.3216 20.4494 64.4487 20.4258 64.5834C20.4087 64.6983 20.4944 64.7377 20.575 64.7549C20.7003 64.7929 20.8337 64.7954 20.9603 64.7621C21.0869 64.7288 21.2017 64.661 21.292 64.5662C21.5219 64.3592 21.7955 64.2067 22.0925 64.1199C22.3894 64.0332 22.7021 64.0146 23.0073 64.0654C23.0553 64.2266 22.7723 64.3072 22.961 64.453C23.1496 64.5988 23.2303 64.3947 23.304 64.3141C23.5905 63.971 23.9387 64.0516 24.3332 64.0859C24.28 64.1648 24.256 64.1974 24.2354 64.23C24.1205 64.4118 23.8375 64.5885 24.0502 64.8149C24.2629 65.0413 24.5253 64.8647 24.7363 64.7257C24.7718 64.7013 24.8051 64.6737 24.8358 64.6434C25.0519 64.4461 25.2766 64.0774 25.4773 64.0911C25.7414 64.1082 25.9918 64.4341 26.2354 64.6177C26.2526 64.6297 26.2543 64.664 26.2697 64.7051C26.0759 64.7566 25.8821 64.8046 25.6917 64.8612C25.5562 64.9007 25.3246 64.8372 25.3383 65.0619C25.3486 65.2334 25.5099 65.3467 25.6814 65.405C26.0476 65.4819 26.4292 65.4304 26.762 65.2592C26.8889 65.2163 26.9918 65.1134 27.1445 65.2437C27.8446 65.7846 28.3031 66.5796 28.4207 67.4564C28.6165 69.66 28.6692 71.8739 28.5785 74.0842C28.6382 74.6067 28.5697 75.1359 28.3791 75.626C28.1884 76.1162 27.8812 76.5525 27.4841 76.8973C27.0694 77.203 26.6344 77.4804 26.1822 77.7274C25.6831 78.007 25.1788 78.278 24.6985 78.5851C24.075 79.0733 23.5891 79.7152 23.2886 80.4479C23.2286 80.5594 23.1857 80.7223 23.3006 80.8081C23.4155 80.8938 23.5716 80.8081 23.6797 80.7051C23.7319 80.6535 23.778 80.5959 23.8169 80.5336C24.3628 79.6912 25.1318 79.0167 26.0382 78.5851C26.1994 78.513 26.304 78.2249 26.4876 78.3501C26.6385 78.453 26.4395 78.6606 26.4275 78.8252C26.4275 78.947 26.3418 79.0945 26.491 79.1683C26.6402 79.242 26.7345 79.146 26.834 79.0568L27.4944 78.4427C27.5184 78.4047 27.546 78.3691 27.5767 78.3364C27.546 78.3691 27.5184 78.4047 27.4944 78.4427L27.5819 78.5851C27.3057 79.182 27.0673 79.7858 26.7483 80.3741C26.5856 80.6301 26.4895 80.9226 26.4685 81.2251C26.4475 81.5276 26.5024 81.8306 26.6282 82.1065C26.6762 82.2043 26.6797 82.3998 26.8735 82.3329C27.0673 82.266 26.9678 82.122 26.9301 82.0105C26.8527 81.7344 26.8486 81.443 26.9181 81.1648C27.0262 80.5491 27.5459 80.3072 27.9472 79.9213L28.2491 80.5473C28.7141 79.8341 29.0929 79.0683 29.3778 78.266C29.7706 78.7995 30.3692 79.0379 30.714 79.5405C31.0055 80.0953 31.2097 80.6918 31.3195 81.3089L31.6934 80.4376C32.0697 80.637 32.3944 80.9212 32.6419 81.2678C32.7758 81.4732 32.9511 81.6485 33.1565 81.7823C33.2697 81.8509 33.3881 81.9247 33.5081 81.8149C33.6282 81.7051 33.5596 81.6074 33.5081 81.4993C33.3458 81.1165 33.1215 80.763 32.8443 80.453C32.3297 79.863 31.8152 79.2626 31.3006 78.6554C31.7755 78.6362 32.2448 78.7631 32.6453 79.0189C33.0459 79.2746 33.3584 79.6471 33.5407 80.0859C33.6282 80.2832 33.6625 80.6005 33.9661 80.5319C34.2371 80.4736 34.1376 80.1803 34.1754 79.9813C34.1754 79.9607 34.2062 79.9436 34.2388 79.9075C34.569 80.2036 34.9744 80.403 35.4104 80.4839C35.5167 80.4959 35.6488 80.5594 35.7123 80.4118C35.7757 80.2643 35.6574 80.1871 35.5407 80.1288C35.15 79.9392 34.8289 79.6313 34.6231 79.2489C34.4444 78.8963 34.1895 78.5879 33.8768 78.346C33.564 78.1042 33.2014 77.9351 32.8152 77.8509C32.4554 77.7698 32.1261 77.5878 31.8661 77.3262C31.606 77.0647 31.4259 76.7344 31.3469 76.3741C31.2522 76.0282 31.1885 75.6747 31.1565 75.3175C30.9557 73.157 30.985 70.9812 31.244 68.8269C31.3201 67.6752 31.7563 66.5765 32.491 65.6863C32.5831 65.5252 32.708 65.3851 32.8575 65.2751C33.007 65.1651 33.1778 65.0876 33.3591 65.0475C33.5403 65.0075 33.7279 65.0058 33.9099 65.0425C34.0918 65.0792 34.264 65.1536 34.4155 65.2609C34.4669 65.2867 34.5202 65.3085 34.575 65.3261C34.8683 65.4067 35.2611 65.6365 35.4327 65.4067C35.5579 65.2352 35.2063 64.9041 34.9987 64.6863C34.9806 64.6631 34.9645 64.6384 34.9507 64.6125C35.1119 64.5216 35.2766 64.3895 35.3435 64.7069C35.3558 64.7638 35.3836 64.8162 35.4239 64.8583C35.4642 64.9003 35.5153 64.9305 35.5716 64.9453C35.9873 65.0583 36.4263 65.053 36.8392 64.9298C36.8708 64.9172 36.8989 64.8973 36.9213 64.8716C36.9437 64.846 36.9596 64.8154 36.9678 64.7823C36.9764 64.6708 36.8906 64.6108 36.786 64.5731L35.9541 64.3003C36.112 64.185 36.2986 64.1154 36.4934 64.099C36.6883 64.0827 36.8838 64.1203 37.0587 64.2077C37.1739 64.2824 37.3031 64.3329 37.4385 64.3561C37.5738 64.3793 37.7124 64.3747 37.846 64.3426C37.9795 64.3105 38.105 64.2516 38.215 64.1694C38.325 64.0873 38.4172 63.9836 38.4858 63.8647C37.5253 63.6451 36.9798 62.7926 36.0399 62.4461C36.6145 62.1793 37.2623 62.1141 37.8786 62.2609C37.973 62.2866 38.033 62.2986 38.0828 62.1991C38.1325 62.0997 38.1119 62.0413 38.0124 61.9967C37.9379 61.9556 37.8658 61.9104 37.7963 61.8612C38.1153 61.7069 38.2474 61.3792 38.6196 61.3055C38.9683 61.234 39.2756 61.0298 39.4766 60.736C39.6776 60.4422 39.7566 60.0818 39.6968 59.7309L39.7088 59.7257ZM37.7586 55.7549C37.4876 55.9127 37.28 56.0619 37.2663 56.381C37.28 56.0619 37.4876 55.9127 37.7586 55.7549ZM37.244 56.3964L37.2148 56.4153L37.244 56.3964ZM34.4601 57.5696C34.447 57.4372 34.3946 57.3118 34.3096 57.2094C34.2246 57.107 34.111 57.0323 33.9833 56.995C34.111 57.0323 34.2246 57.107 34.3096 57.2094C34.3946 57.3118 34.447 57.4372 34.4601 57.5696ZM32.6025 55.007L32.6128 55.0173L32.6025 55.007ZM22.1891 60.4341L22.1668 60.4564L22.1891 60.4341ZM22.105 61.5971C22.1438 61.6169 22.1847 61.6324 22.2268 61.6434C22.1847 61.6324 22.1438 61.6169 22.105 61.5971ZM24.5184 64.513C24.5003 64.5445 24.4718 64.5687 24.4378 64.5816C24.4718 64.5687 24.5003 64.5445 24.5184 64.513C24.5979 64.4845 24.6709 64.4401 24.7328 64.3827C24.6709 64.4401 24.5979 64.4845 24.5184 64.513ZM23.7311 63.2472C23.9335 63.0928 24.1599 62.983 24.1634 62.6863C24.5842 62.9793 24.9227 63.3757 25.1462 63.8372C24.5459 63.9539 24.2371 63.4187 23.7311 63.2472ZM29.8358 60.9624C29.7414 61.1837 29.6505 61.4067 29.5476 61.6485C29.4001 61.477 29.2646 61.3055 29.1239 61.1511C29.0193 61.031 28.8718 60.8767 28.7363 60.9093C28.1599 61.0482 28.4824 60.6142 28.34 60.3947C28.7703 60.5836 29.2324 60.6895 29.702 60.7069C29.9129 60.6931 29.8958 60.8115 29.8358 60.9521V60.9624ZM29.0605 61.6503L29.0965 61.6211L29.0605 61.6503ZM29.2028 62.6691C29.4944 62.7377 29.5099 62.7395 29.4978 63.0533C29.497 63.5182 29.5291 63.9824 29.5939 64.4427C28.7843 63.995 28.9318 63.3312 29.2011 62.6691H29.2028ZM27.6574 61.1871C27.3966 60.6039 27.4858 60.4376 28.1719 60.2557C27.8786 60.5491 27.6419 60.7703 27.6574 61.1871ZM28.0159 61.9419C28.134 61.8559 28.2333 61.7467 28.3079 61.6211C28.3826 61.4955 28.4308 61.356 28.4498 61.2111C28.7671 61.501 28.4773 61.7103 28.3864 61.9333C28.2968 62.2012 28.2432 62.4798 28.2268 62.7618C28.1359 62.5593 28.0553 62.3535 27.9541 62.1528C27.9416 62.1357 27.9333 62.1158 27.9296 62.0949C27.926 62.074 27.9272 62.0526 27.9332 62.0322C27.9392 62.0118 27.9497 61.9931 27.964 61.9774C27.9784 61.9618 27.9961 61.9496 28.0159 61.9419ZM29.3984 59.8098C29.1136 59.7652 28.7654 59.8492 28.5665 59.7137C28.3675 59.5782 28.6059 59.2317 28.5304 58.8955C28.9033 59.1624 29.3606 59.2844 29.8169 59.2386C29.6111 59.441 29.8683 59.8938 29.3966 59.8184L29.3984 59.8098ZM28.4961 58.8612C28.2211 59.048 27.9837 59.2848 27.7963 59.5593C27.7037 59.6743 27.6025 59.7566 27.5304 59.5336C27.4874 59.4458 27.4646 59.3495 27.4637 59.2517C27.4628 59.1539 27.4839 59.0572 27.5253 58.9686C27.5668 58.88 27.6277 58.8019 27.7033 58.74C27.779 58.6781 27.8677 58.6339 27.9627 58.6108C28.2731 58.4702 28.3263 58.7154 28.4961 58.8612ZM26.6762 63.4925C26.8328 63.5587 26.998 63.6026 27.1668 63.6228C27.9232 63.6039 28.2303 64.1117 28.4721 64.7017C28.5968 64.9195 28.68 65.1585 28.7174 65.4067C28.3555 65.2636 28.0104 65.0813 27.6882 64.863C27.4378 64.7086 27.3023 64.5439 27.4755 64.2437C27.5201 64.1666 27.6179 64.0362 27.4412 63.959C27.2251 63.8647 27.2697 64.0739 27.2011 64.1597C27.1707 64.2144 27.1454 64.2718 27.1256 64.3312C26.8272 64.1151 26.5099 63.9333 26.6694 63.4856L26.6762 63.4925ZM30.0587 60.5902C29.9564 60.3705 29.9087 60.1293 29.9194 59.8871C29.9302 59.645 29.9991 59.409 30.1205 59.1991C30.2697 58.8458 30.2783 58.8561 29.9215 58.8681C29.798 58.8681 29.7706 58.7549 29.7105 58.6846C29.5154 58.4633 29.2731 58.2888 29.0014 58.1739C28.7297 58.059 28.4357 58.0067 28.1411 58.0208C28.0261 58.0208 27.8701 57.9384 27.937 58.2197C27.9833 58.4084 27.6711 58.3432 27.5236 58.513C27.4802 58.3233 27.4773 58.1265 27.5152 57.9356C27.553 57.7447 27.6307 57.5639 27.7431 57.405C28.0529 56.9157 28.1871 56.3357 28.1239 55.76C28.1239 55.6863 28.1102 55.6228 28.0193 55.6005C27.9782 55.5855 27.933 55.5868 27.8929 55.604C27.8527 55.6212 27.8206 55.6531 27.8032 55.6931C27.7196 55.8466 27.6201 55.9909 27.5064 56.1237C27.4447 55.7926 27.2972 55.4719 27.5973 55.1597C27.6835 55.0363 27.7433 54.8964 27.7728 54.7488C27.8023 54.6012 27.801 54.4491 27.7689 54.3021C27.888 54.329 27.9984 54.3855 28.0899 54.4665C28.1813 54.5475 28.2508 54.6502 28.292 54.7652C28.4081 55.2707 28.6361 55.7437 28.9593 56.1494C29.1421 56.2873 29.3508 56.3872 29.5729 56.4432C29.7951 56.4992 30.0261 56.5101 30.2526 56.4753C30.4069 56.4753 30.6368 56.3038 30.7174 56.6057L30.7483 56.7051H30.6436C30.5184 56.7051 30.3538 56.5096 30.2731 56.7206C30.1788 56.9641 30.4447 56.935 30.5579 56.9882C30.9009 57.1443 30.9129 57.1357 30.9147 57.5216C30.34 57.2986 29.7723 56.9401 29.105 57.4187C29.5578 57.7762 30.0519 58.078 30.5767 58.3175C30.6762 58.3467 30.8066 58.3449 30.7809 58.5268C30.6704 59.2536 30.4212 59.9524 30.0467 60.5851L30.0587 60.5902ZM32.3726 58.887C32.3418 58.8407 32.3315 58.8304 32.3263 58.8166C32.2543 58.6726 32.4172 58.4238 32.2131 58.3741C32.009 58.3244 31.8358 58.4839 31.7208 58.6588C31.6059 58.8338 31.5407 59.0791 31.7208 59.206C31.985 59.3861 31.798 59.465 31.6917 59.5714C31.3539 59.9306 30.9504 60.2217 30.503 60.429C30.7088 59.8355 30.9232 59.2849 31.0639 58.7137C31.1136 58.5062 31.3949 58.3346 31.6025 58.1991C31.9044 57.9899 32.2371 57.8218 32.6436 57.5851C32.3795 58.0293 32.6556 58.4993 32.3692 58.9041L32.3726 58.887ZM31.2285 58.0859C31.271 57.5685 31.1995 57.048 31.0193 56.5611C30.9267 56.3604 31.1428 56.3003 31.1514 56.0825C31.2388 56.1803 31.2543 56.2026 31.2731 56.2197C32.0193 56.8595 31.479 57.4684 31.2285 58.0859ZM31.8803 54.8389C31.8816 54.8149 31.8816 54.7909 31.8803 54.7669C31.8816 54.7909 31.8816 54.8149 31.8803 54.8389ZM31.1719 53.676C31.3407 53.9568 31.5239 54.2288 31.7208 54.4907L31.6608 54.5559C31.2097 54.513 31.3606 54.971 31.1462 55.1425C31.0364 54.971 31.0107 54.7326 30.7929 54.6057L30.4327 55.453C30.2611 55.0602 30.5785 54.7326 30.5304 54.3467C30.49 53.9668 30.3458 53.6054 30.1136 53.3021C30.6282 53.0413 30.9284 53.2369 31.1668 53.6777L31.1719 53.676ZM26.9936 54.1237C26.9627 53.8784 26.9335 53.6314 26.8992 53.3861C26.8649 53.1408 26.8237 52.8715 26.7792 52.5885C26.9884 52.6177 27.0999 52.7772 27.2457 52.8647C27.46 53.0075 27.6956 53.1152 27.9438 53.1837C28.5081 53.3106 28.5081 53.3038 28.8014 53.9024C28.678 53.8475 28.6128 53.8252 28.5527 53.7909C28.2702 53.6197 27.9555 53.5082 27.6282 53.4633C27.1685 53.4067 27.3435 53.9882 26.9953 54.1254L26.9936 54.1237ZM26.0707 58.5714C26.0399 58.4873 25.8683 58.3672 26.1068 58.278C26.2972 58.1982 26.4612 58.0661 26.5799 57.8971C26.6985 57.728 26.767 57.5289 26.7774 57.3226C27.5013 57.9007 27.0399 58.6297 27.232 59.2935C27.1415 59.2758 27.0566 59.2367 26.9843 59.1793C26.9121 59.122 26.8547 59.0482 26.8169 58.9642C26.6882 58.7051 26.5459 58.5233 26.2234 58.724C26.0639 58.8235 26.0896 58.6211 26.0707 58.5714ZM26.714 59.4187L26.6557 59.3724C26.6654 59.3622 26.6779 59.3551 26.6917 59.3518C26.6779 59.3551 26.6654 59.3622 26.6557 59.3724L26.714 59.4187ZM26.2989 59.6228C26.4518 59.7694 26.6251 59.893 26.8135 59.9899C27.3641 60.1923 27.2611 60.6142 27.2251 61.0345C26.196 60.5765 26.196 60.5765 26.2972 59.6245L26.2989 59.6228ZM26.5888 78.0859C26.6322 78.107 26.6716 78.1355 26.7054 78.17C26.6716 78.1355 26.6322 78.107 26.5888 78.0859ZM27.2423 79.9916C27.2385 80.0033 27.2385 80.0159 27.2423 80.0276C27.2385 80.0159 27.2385 80.0033 27.2423 79.9916ZM33.0605 64.8561C33.4755 64.0551 33.6436 63.9847 34.2611 64.2523C34.377 64.2916 34.4965 64.3192 34.6179 64.3346C34.0753 64.4315 33.5492 64.6047 33.0553 64.8492L33.0605 64.8561ZM34.6402 64.3226L34.8426 64.3055L34.6402 64.3226ZM36.2337 63.2678C36.3623 63.3226 36.6025 63.3021 36.5064 63.5473C36.4258 63.7497 36.2371 63.736 36.069 63.6605C35.7304 63.5019 35.3558 63.4357 34.9833 63.4684C34.786 63.489 34.5905 63.5319 34.3949 63.5662L34.3829 63.4925L35.5442 62.6503C35.6368 63.0139 35.937 63.1391 36.2303 63.2678" fill="white"/>
</g>
<defs>
<clipPath id="clip0">
<rect width="183.799" height="100" fill="white"/>
</clipPath>
</defs>
</svg>
